<svg xmlns="http://www.w3.org/2000/svg" viewBox="0 0 64 64" fill="currentColor" aria-hidden="true">
<g transform="translate(0.000000,64.000000) scale(0.100000,-0.100000)"
fill="currentColor" stroke="none">
<path d="M458 510 c-20 -11 -39 -28 -42 -38 -3 -10 -28 -39 -55 -66 -43 -43
-51 -47 -71 -36 -24 13 -66 -7 -77 -36 -3 -8 -23 -24 -44 -34 -67 -35 -78 -88
-29 -144 17 -18 41 -37 55 -40 34 -9 83 18 91 49 3 13 17 31 31 40 21 14 24
23 20 50 -5 29 1 38 62 99 36 36 70 66 74 66 13 0 56 54 57 71 0 15 -19 39
-29 39 -4 -1 -23 -10 -43 -20z m50 -19 c-7 -18 -229 -223 -235 -217 -4 3 33
46 80 95 48 49 87 93 87 98 0 11 37 31 58 32 8 1 12 -3 10 -8z m-242 -172
c-14 -17 -26 -37 -26 -44 0 -21 32 -35 52 -24 30 16 33 -12 5 -33 -15 -11 -27
-25 -27 -31 0 -21 -34 -47 -61 -47 -18 0 -36 10 -53 31 -40 48 -33 80 24 109
20 10 44 30 54 44 9 14 26 26 37 26 20 0 20 -1 -5 -31z"/>
<path d="M212 254 c4 -20 34 -41 44 -31 8 8 -24 47 -38 47 -5 0 -8 -7 -6 -16z"/>
<path d="M200 215 c12 -13 27 -22 32 -19 12 8 -21 44 -40 44 -12 0 -10 -6 8
-25z"/>
<path d="M210 160 c0 -5 5 -10 10 -10 6 0 10 5 10 10 0 6 -4 10 -10 10 -5 0
-10 -4 -10 -10z"/>
</g>
</svg>
