<svg xmlns="http://www.w3.org/2000/svg" viewBox="0 0 64 64" fill="currentColor" aria-hidden="true">
<g transform="translate(0.000000,64.000000) scale(0.100000,-0.100000)"
fill="currentColor" stroke="none">
<path d="M460 500 c0 -5 -11 -10 -25 -10 -14 0 -25 -4 -25 -10 0 -6 27 -10 60
-10 33 0 60 4 60 10 0 6 -11 10 -25 10 -14 0 -25 5 -25 10 0 6 -4 10 -10 10
-5 0 -10 -4 -10 -10z"/>
<path d="M161 473 c-1 -7 -12 -13 -26 -13 -30 0 -34 -17 -4 -22 19 -3 20 -9
20 -132 0 -124 -1 -131 -23 -147 -29 -22 -16 -37 14 -17 21 14 26 14 46 0 12
-8 26 -11 30 -7 4 4 -3 14 -15 22 -22 15 -23 22 -23 149 l0 134 25 0 c14 0 25
5 25 10 0 6 -13 10 -29 10 -16 0 -32 6 -34 13 -4 10 -6 10 -6 0z"/>
<path d="M417 454 c-10 -11 2 -24 24 -24 18 0 19 -8 19 -126 0 -118 -1 -127
-22 -144 -29 -23 -19 -35 15 -19 21 9 30 9 41 0 8 -7 20 -10 26 -6 7 4 1 14
-15 27 -24 19 -25 23 -25 144 l0 124 26 0 c16 0 24 5 22 13 -5 13 -99 23 -111
11z"/>
<path d="M265 400 c-3 -5 -16 -10 -29 -10 -45 0 -68 -66 -26 -77 16 -4 18 -9
9 -25 -12 -22 -8 -64 12 -118 l12 -35 79 0 c48 0 77 4 75 10 -2 6 5 27 16 49
17 32 19 45 10 77 -8 30 -7 39 4 43 9 4 13 17 11 38 -3 28 -7 33 -33 36 -16 2
-34 8 -39 13 -13 12 -93 12 -101 -1z m83 -27 c2 -9 -8 -13 -32 -13 -34 0 -44
8 -29 24 11 11 56 2 61 -11z m-88 -29 c0 -10 -7 -14 -22 -12 -32 5 -35 28 -4
28 17 0 26 -5 26 -16z m160 0 c0 -10 -7 -14 -22 -12 -32 5 -35 28 -4 28 17 0
26 -5 26 -16z m-59 -24 c76 -41 45 -160 -42 -160 -43 0 -89 44 -89 87 0 55 79
100 131 73z"/>
</g>
</svg>
