<svg xmlns="http://www.w3.org/2000/svg" viewBox="0 0 64 64" fill="currentColor" aria-hidden="true">
<g transform="translate(0.000000,64.000000) scale(0.100000,-0.100000)"
fill="currentColor" stroke="none">
<path d="M439 497 c-13 -14 -32 -36 -42 -50 -15 -22 -21 -25 -42 -17 -35 13
-71 -3 -90 -40 -11 -21 -23 -30 -40 -30 -66 0 -108 -44 -107 -111 2 -145 220
-182 239 -41 4 33 12 46 29 54 27 13 30 29 12 59 -12 18 -8 24 32 60 84 73 91
82 88 109 -4 35 -46 39 -79 7z m61 -9 c-1 -16 -24 -48 -36 -48 -5 0 -39 -30
-76 -67 -37 -37 -71 -64 -75 -60 -4 4 23 38 60 75 37 37 67 71 67 76 0 12 32
35 48 36 6 0 12 -6 12 -12z m-150 -86 c0 -5 -14 -21 -30 -37 -48 -46 -20 -105
29 -61 16 14 20 15 30 2 10 -12 8 -16 -8 -21 -21 -6 -25 -16 -36 -77 -19 -117
-195 -72 -195 50 0 42 28 72 75 79 46 7 64 18 76 50 8 22 59 35 59 15z"/>
<path d="M250 302 c0 -14 49 -56 57 -49 3 4 -4 18 -17 32 -24 25 -40 32 -40
17z"/>
<path d="M220 272 c0 -14 49 -56 57 -49 3 4 -4 18 -17 32 -24 25 -40 32 -40
17z"/>
<path d="M200 242 c0 -14 39 -46 47 -39 3 4 -2 16 -12 27 -19 21 -35 26 -35
12z"/>
<path d="M275 190 c3 -5 8 -10 11 -10 2 0 4 5 4 10 0 6 -5 10 -11 10 -5 0 -7
-4 -4 -10z"/>
<path d="M250 170 c0 -5 5 -10 10 -10 6 0 10 5 10 10 0 6 -4 10 -10 10 -5 0
-10 -4 -10 -10z"/>
</g>
</svg>
