<svg xmlns="http://www.w3.org/2000/svg" viewBox="0 0 64 64" fill="currentColor" aria-hidden="true">
<g transform="translate(0.000000,64.000000) scale(0.100000,-0.100000)"
fill="currentColor" stroke="none">
<path d="M205 529 c-17 -4 -44 -22 -60 -39 -30 -31 -30 -32 -33 -166 l-4 -134
44 -1 c164 -4 372 1 380 9 6 6 9 44 6 87 -3 70 -6 80 -31 101 -16 14 -41 24
-58 24 -41 0 -63 14 -88 54 -36 58 -96 83 -156 65z m92 -32 c12 -7 35 -31 52
-54 31 -42 38 -47 103 -58 48 -8 58 -27 58 -109 l0 -66 -191 0 -191 0 4 121 3
121 33 29 c35 32 89 38 129 16z"/>
<path d="M157 173 c-4 -3 -7 -15 -7 -25 0 -17 12 -18 170 -18 l170 0 0 25 c0
18 -5 25 -20 25 -13 0 -20 -7 -20 -20 0 -11 -4 -20 -10 -20 -5 0 -10 9 -10 21
0 11 -5 17 -10 14 -6 -4 -8 -10 -5 -15 3 -5 1 -11 -4 -14 -5 -3 -11 3 -14 14
-7 26 -26 25 -36 -2 -8 -21 -8 -21 -16 3 l-8 24 -4 -22 c-6 -29 -20 -29 -26 0
l-4 22 -10 -24 c-10 -24 -10 -24 -15 -3 -8 28 -38 29 -38 2 0 -11 -4 -20 -10
-20 -5 0 -10 9 -10 21 0 11 -5 17 -10 14 -6 -4 -8 -10 -5 -15 3 -5 1 -11 -4
-14 -5 -3 -11 3 -14 14 -5 20 -18 26 -30 13z"/>
<path d="M131 144 c0 -21 5 -34 15 -38 31 -12 349 -7 362 6 15 15 16 58 2 58
-5 0 -10 -11 -10 -25 l0 -25 -179 0 -180 0 -4 28 c-4 26 -4 26 -6 -4z"/>
</g>
</svg>
