<svg xmlns="http://www.w3.org/2000/svg" viewBox="0 0 64 64" fill="currentColor" aria-hidden="true">
<g transform="translate(0.000000,64.000000) scale(0.100000,-0.100000)"
fill="currentColor" stroke="none">
<path d="M141 475 c-25 -67 -25 -65 -6 -65 8 0 15 5 15 10 0 6 11 10 25 10 14
0 25 -4 25 -10 0 -5 7 -10 16 -10 16 0 16 3 -11 80 -19 55 -40 50 -64 -15z
m43 0 c3 -9 0 -15 -9 -15 -9 0 -12 6 -9 15 4 8 7 15 9 15 2 0 5 -7 9 -15z"/>
<path d="M303 522 c-16 -10 -75 -162 -69 -179 3 -7 20 -13 41 -13 33 0 35 -2
35 -35 0 -32 2 -35 30 -35 17 0 30 -4 30 -9 0 -15 -30 -41 -46 -41 -10 0 -14
-13 -14 -50 l0 -51 113 3 112 3 0 205 0 205 -110 3 c-60 1 -115 -1 -122 -6z
m-3 -117 c0 -48 -2 -55 -20 -55 -11 0 -20 4 -20 8 0 13 31 102 36 102 2 0 4
-25 4 -55z m88 15 c16 -26 47 -25 66 2 21 30 33 15 12 -17 -26 -40 -106 -24
-106 22 0 19 13 16 28 -7z"/>
<path d="M140 312 c0 -6 19 -17 43 -25 23 -8 50 -18 60 -22 10 -4 17 -3 17 4
0 12 -44 34 -93 46 -16 4 -27 3 -27 -3z"/>
<path d="M132 238 c5 -15 69 -22 105 -13 42 10 14 25 -48 25 -44 0 -60 -3 -57
-12z"/>
<path d="M196 191 c-43 -15 -74 -41 -49 -41 19 0 108 39 111 49 5 14 -2 13
-62 -8z"/>
</g>
</svg>
