<svg xmlns="http://www.w3.org/2000/svg" viewBox="0 0 64 64" fill="currentColor" aria-hidden="true">
<g transform="translate(0.000000,64.000000) scale(0.100000,-0.100000)"
fill="currentColor" stroke="none">
<path d="M353 470 c-16 -6 -23 -18 -23 -36 0 -21 -3 -25 -17 -19 -34 15 -137
16 -163 3 -25 -13 -25 -15 -22 -123 2 -61 8 -114 13 -119 13 -14 120 -19 152
-7 22 9 27 17 27 46 0 19 5 35 10 35 6 0 10 -16 10 -35 0 -29 5 -37 28 -46 29
-11 136 -8 149 5 5 4 10 70 11 147 l4 139 -27 10 c-32 12 -122 12 -152 0z
m157 -86 c0 -17 -3 -46 -6 -63 l-6 -31 -69 0 -69 0 0 63 0 62 75 0 75 0 0 -31z
m-212 -54 l-3 -35 -70 0 -70 0 -3 35 -3 35 76 0 76 0 -3 -35z m-2 -102 c-3
-13 -6 -26 -6 -30 0 -12 -66 -20 -99 -13 -26 5 -31 11 -31 36 l0 29 71 0 c69
0 71 -1 65 -22z m204 -7 c0 -35 -34 -47 -100 -36 -36 6 -40 10 -40 36 l0 29
70 0 70 0 0 -29z"/>
</g>
</svg>
