<svg xmlns="http://www.w3.org/2000/svg" viewBox="0 0 64 64" fill="currentColor" aria-hidden="true">
<g transform="translate(0.000000,64.000000) scale(0.100000,-0.100000)"
fill="currentColor" stroke="none">
<path d="M432 471 c-29 -36 -36 -39 -89 -43 -50 -4 -62 -1 -84 19 -24 22 -89
33 -89 15 0 -4 20 -28 45 -52 54 -53 55 -60 9 -60 -48 0 -94 -45 -94 -92 0
-42 31 -92 72 -119 68 -42 166 4 156 73 -8 49 11 43 78 -23 35 -34 67 -60 71
-56 4 4 -16 31 -44 60 -49 50 -51 53 -38 77 8 14 14 47 15 73 0 43 4 52 43 87
35 33 40 42 31 57 -20 32 -48 27 -82 -16z m57 -7 c-6 -7 -15 -11 -21 -8 -5 3
-4 12 3 20 6 7 15 11 21 8 5 -3 4 -12 -3 -20z m-239 -39 c13 -14 21 -25 18
-25 -2 0 -15 11 -28 25 -13 14 -21 25 -18 25 2 0 15 -11 28 -25z m132 -62
c-90 -100 -120 -128 -129 -119 -7 7 176 196 190 196 5 0 -22 -35 -61 -77z
m-81 -23 c-40 -38 -76 -69 -80 -68 -23 2 -20 -7 14 -42 36 -37 60 -45 49 -17
-2 7 27 44 66 82 68 67 70 69 70 41 0 -36 -25 -66 -56 -66 -24 0 -41 -31 -28
-51 10 -17 -16 -56 -46 -69 -22 -9 -35 -8 -64 4 -33 14 -36 18 -26 37 15 26 6
63 -21 88 l-21 19 26 17 c15 10 33 14 46 10 25 -8 50 10 50 36 0 27 28 49 63
49 32 -1 32 -1 -42 -70z"/>
</g>
</svg>
