<svg xmlns="http://www.w3.org/2000/svg" viewBox="0 0 64 64" fill="currentColor" aria-hidden="true">
<g transform="translate(0.000000,64.000000) scale(0.100000,-0.100000)"
fill="currentColor" stroke="none">
<path d="M110 320 l0 -210 213 2 212 3 0 205 0 205 -212 3 -213 2 0 -210z
m400 110 l0 -80 -190 0 -190 0 0 80 0 80 190 0 190 0 0 -80z m-349 -290 c19 0
19 4 13 90 -7 89 -7 90 16 90 23 0 23 -1 17 -90 l-7 -90 25 0 c21 0 25 5 25
29 0 17 -4 33 -10 36 -5 3 -10 31 -10 61 0 51 1 54 25 54 24 0 25 -3 25 -54 0
-30 -4 -58 -10 -61 -5 -3 -10 -19 -10 -36 0 -24 4 -29 25 -29 25 0 25 1 25 90
0 53 4 90 10 90 6 0 10 -37 10 -90 0 -89 0 -90 25 -90 21 0 25 5 25 29 0 17
-4 33 -10 36 -5 3 -10 31 -10 61 0 51 1 54 25 54 24 0 25 -3 25 -54 0 -30 -4
-58 -10 -61 -5 -3 -10 -19 -10 -36 0 -24 4 -29 25 -29 l26 0 -7 90 c-7 89 -7
90 16 90 23 0 23 -1 17 -90 l-7 -90 25 0 c24 0 24 2 28 90 l3 90 0 -92 -1 -93
-192 -3 -193 -2 2 97 2 98 3 -92 c3 -85 5 -93 24 -93z"/>
<path d="M154 476 c-3 -7 -4 -35 -2 -62 l3 -49 40 0 40 0 3 63 3 62 -41 0
c-25 0 -43 -5 -46 -14z m74 -48 c-3 -39 -6 -43 -30 -46 -27 -3 -28 -2 -28 42
0 45 1 46 31 46 29 0 30 -1 27 -42z"/>
<path d="M184 428 c2 -45 24 -48 24 -3 0 22 -5 35 -13 35 -8 0 -12 -12 -11
-32z"/>
<path d="M282 428 l3 -63 100 0 100 0 3 63 3 62 -106 0 -106 0 3 -62z m196 0
l-3 -43 -90 0 -90 0 -3 43 -3 42 96 0 96 0 -3 -42z"/>
<path d="M312 425 c0 -45 22 -42 24 3 1 20 -3 32 -11 32 -8 0 -13 -13 -13 -35z"/>
<path d="M372 425 c0 -22 5 -35 13 -35 8 0 13 13 13 35 0 22 -5 35 -13 35 -8
0 -13 -13 -13 -35z"/>
<path d="M433 428 c3 -45 25 -48 25 -3 0 23 -5 35 -14 35 -9 0 -13 -10 -11
-32z"/>
</g>
</svg>
