<svg xmlns="http://www.w3.org/2000/svg" viewBox="0 0 64 64" fill="currentColor" aria-hidden="true">
<g transform="translate(0.000000,64.000000) scale(0.100000,-0.100000)"
fill="currentColor" stroke="none">
<path d="M385 495 c-14 -13 -25 -30 -25 -36 0 -7 -45 -59 -100 -115 -90 -91
-100 -105 -94 -129 5 -20 1 -32 -21 -55 -14 -15 -22 -30 -17 -34 5 -3 20 6 33
20 19 20 30 24 53 20 26 -6 39 4 130 94 56 55 108 100 115 100 24 0 61 48 61
80 0 19 -9 40 -25 55 -15 16 -36 25 -55 25 -19 0 -40 -9 -55 -25z m90 -20 c14
-13 25 -29 25 -35 0 -6 -11 -22 -25 -35 -13 -14 -29 -25 -35 -25 -6 0 -22 11
-35 25 -14 13 -25 29 -25 35 0 6 11 22 25 35 13 14 29 25 35 25 6 0 22 -11 35
-25z m-90 -91 c19 -19 24 -29 16 -37 -14 -14 -67 35 -57 52 10 15 12 14 41
-15z m-40 -40 l27 -27 -63 -63 c-64 -64 -85 -74 -107 -52 -22 22 -12 42 50
105 34 35 63 63 65 63 1 0 14 -12 28 -26z"/>
<path d="M280 295 c-13 -14 -20 -28 -17 -32 8 -7 57 35 57 49 0 15 -16 8 -40
-17z"/>
</g>
</svg>
