<svg xmlns="http://www.w3.org/2000/svg" xmlns:xlink="http://www.w3.org/1999/xlink" width="2000" zoomAndPan="magnify" viewBox="0 0 1500 1499.999933" height="2000" preserveAspectRatio="xMidYMid meet" version="1.0"><defs><clipPath id="9b4087df36"><path d="M 531 732.496094 L 1443 732.496094 L 1443 1427 L 531 1427 Z M 531 732.496094 " clip-rule="nonzero"/></clipPath></defs><rect x="-150" width="1800" fill="#ffffff" y="-149.999993" height="1799.99992" fill-opacity="1"/><rect x="-150" width="1800" fill="#1e2227" y="-149.999993" height="1799.99992" fill-opacity="1"/><path fill="#eef1f4" d="M 989.632812 1426.378906 C 923.253906 1426.378906 862.046875 1414.742188 806.015625 1391.46875 C 749.980469 1368.1875 701.488281 1335.644531 660.535156 1293.835938 C 619.585938 1252.027344 587.902344 1202.453125 565.492188 1145.121094 C 543.078125 1087.789062 531.871094 1025.078125 531.871094 956.976562 C 531.871094 888.871094 543.078125 826.15625 565.492188 768.832031 C 587.902344 711.5 619.585938 661.929688 660.535156 620.113281 C 701.488281 578.300781 749.980469 545.757812 806.015625 522.484375 C 862.046875 499.203125 923.253906 487.5625 989.632812 487.5625 C 1061.183594 487.5625 1126.921875 500.710938 1186.835938 527.003906 C 1246.753906 553.296875 1298.046875 590.800781 1340.710938 639.515625 C 1383.382812 688.222656 1414.640625 745.765625 1434.476562 812.136719 L 1312.914062 812.136719 C 1289.640625 746.625 1249.339844 695.117188 1192.007812 657.621094 C 1134.679688 620.121094 1068.519531 601.367188 993.519531 601.367188 C 926.273438 601.367188 866.789062 616.453125 815.0625 646.628906 C 763.335938 676.800781 722.605469 718.609375 692.863281 772.054688 C 663.121094 825.507812 648.25 887.148438 648.25 956.976562 C 648.25 1026.800781 663.121094 1088.4375 692.863281 1141.886719 C 722.605469 1195.335938 763.335938 1237.148438 815.0625 1267.324219 C 866.789062 1297.492188 926.273438 1312.574219 993.519531 1312.574219 C 1070.242188 1312.574219 1138.347656 1292.75 1197.828125 1253.09375 C 1257.3125 1213.441406 1298.6875 1159.558594 1321.964844 1091.453125 L 1442.230469 1091.453125 C 1424.125 1158.695312 1393.308594 1217.320312 1349.769531 1267.324219 C 1306.234375 1317.328125 1253.644531 1356.335938 1192.007812 1384.351562 C 1130.367188 1412.371094 1062.910156 1426.378906 989.632812 1426.378906 Z M 989.632812 1426.378906 " fill-opacity="1" fill-rule="nonzero"/><path fill="#4ea6e6" d="M 535.683594 995.789062 C 469.304688 995.789062 408.101562 984.152344 352.066406 960.882812 C 296.035156 937.605469 247.332031 905.0625 205.953125 863.253906 C 164.570312 821.4375 132.457031 771.867188 109.613281 714.542969 C 86.769531 657.21875 75.347656 594.503906 75.347656 526.394531 C 75.347656 458.296875 86.550781 395.800781 108.960938 338.910156 C 131.378906 282.015625 163.277344 232.445312 204.660156 190.203125 C 246.039062 147.960938 294.53125 115.203125 350.132812 91.929688 C 405.734375 68.652344 466.722656 57.011719 533.097656 57.011719 C 602.066406 57.011719 665.855469 69.511719 724.472656 94.515625 C 783.089844 119.511719 833.734375 154.421875 876.40625 199.25 C 919.082031 244.078125 949.902344 296.234375 968.867188 355.714844 L 844.734375 355.714844 C 816.285156 297.09375 775.335938 251.621094 721.886719 219.296875 C 668.441406 186.96875 606.804688 170.804688 536.976562 170.804688 C 469.738281 170.804688 410.042969 185.890625 357.886719 216.0625 C 305.734375 246.234375 265 288.046875 235.691406 341.496094 C 206.378906 394.941406 191.722656 456.574219 191.722656 526.394531 C 191.722656 596.226562 206.59375 657.867188 236.332031 711.316406 C 266.074219 764.761719 307.023438 806.566406 359.179688 836.738281 C 411.335938 866.914062 471.03125 882 538.269531 882 C 599.472656 882 653.78125 869.929688 701.195312 845.796875 C 748.605469 821.660156 787.183594 788.253906 816.921875 745.582031 C 846.664062 702.90625 865.417969 653.121094 873.179688 596.222656 L 504.652344 596.222656 L 504.652344 487.609375 L 996.019531 487.609375 C 997.742188 586.746094 979.425781 674.460938 941.0625 750.753906 C 902.703125 827.042969 848.820312 886.957031 779.429688 930.492188 C 710.03125 974.023438 628.785156 995.789062 535.683594 995.789062 Z M 535.683594 995.789062 " fill-opacity="1" fill-rule="nonzero"/><g clip-path="url(#9b4087df36)"><path fill="#eef1f4" d="M 989.632812 1426.378906 C 923.253906 1426.378906 862.046875 1414.742188 806.015625 1391.46875 C 749.980469 1368.1875 701.488281 1335.644531 660.535156 1293.839844 C 619.585938 1252.027344 587.902344 1202.453125 565.492188 1145.121094 C 543.078125 1087.792969 531.871094 1025.078125 531.871094 956.976562 C 531.871094 888.871094 543.078125 826.15625 565.492188 768.832031 C 587.902344 711.5 619.585938 661.929688 660.535156 620.113281 C 701.488281 578.304688 749.980469 545.757812 806.015625 522.484375 C 862.046875 499.203125 923.253906 487.5625 989.632812 487.5625 C 1061.183594 487.5625 1126.921875 500.710938 1186.835938 527.003906 C 1246.753906 553.296875 1298.046875 590.800781 1340.710938 639.515625 C 1383.382812 688.222656 1414.640625 745.765625 1434.476562 812.136719 L 1312.914062 812.136719 C 1289.640625 746.625 1249.339844 695.117188 1192.007812 657.621094 C 1134.679688 620.121094 1068.519531 601.367188 993.519531 601.367188 C 926.273438 601.367188 866.789062 616.453125 815.0625 646.628906 C 763.335938 676.800781 722.605469 718.609375 692.863281 772.054688 C 663.121094 825.507812 648.25 887.148438 648.25 956.976562 C 648.25 1026.800781 663.121094 1088.4375 692.863281 1141.886719 C 722.605469 1195.335938 763.335938 1237.148438 815.0625 1267.324219 C 866.789062 1297.492188 926.273438 1312.574219 993.519531 1312.574219 C 1070.242188 1312.574219 1138.347656 1292.75 1197.828125 1253.09375 C 1257.3125 1213.441406 1298.6875 1159.558594 1321.964844 1091.453125 L 1442.230469 1091.453125 C 1424.125 1158.699219 1393.308594 1217.320312 1349.769531 1267.324219 C 1306.234375 1317.328125 1253.644531 1356.335938 1192.007812 1384.355469 C 1130.367188 1412.371094 1062.910156 1426.378906 989.632812 1426.378906 Z M 989.632812 1426.378906 " fill-opacity="1" fill-rule="nonzero"/></g></svg>