<svg xmlns="http://www.w3.org/2000/svg" viewBox="0 0 48 48" fill="none" stroke="#a855f7" stroke-width="2.5" stroke-linecap="round" stroke-linejoin="round">
  <!-- scroll / peg box -->
  <path d="M20 4 Q24 4 24 8 Q24 4 28 4"/>
  <!-- neck -->
  <rect x="21" y="7" width="6" height="14" rx="1"/>
  <!-- upper bout -->
  <path d="M14 21 C10 21 8 26 10 30 C12 32 14 32 14 32"/>
  <path d="M34 21 C38 21 40 26 38 30 C36 32 34 32 34 32"/>
  <!-- waist (C-bouts) -->
  <path d="M14 32 C12 34 12 36 14 38"/>
  <path d="M34 32 C36 34 36 36 34 38"/>
  <!-- lower bout -->
  <path d="M14 38 C10 40 10 46 24 46 C38 46 38 40 34 38"/>
  <!-- top of upper bout connecting to neck -->
  <path d="M14 21 C14 19 17 18 21 18"/>
  <path d="M34 21 C34 19 31 18 27 18"/>
  <!-- f-holes (suggested) -->
  <line x1="18" y1="32" x2="18" y2="38" stroke-width="2"/>
  <line x1="30" y1="32" x2="30" y2="38" stroke-width="2"/>
  <!-- strings -->
  <line x1="22" y1="8" x2="22" y2="40" stroke-width="1"/>
  <line x1="24" y1="8" x2="24" y2="40" stroke-width="1"/>
  <line x1="26" y1="8" x2="26" y2="40" stroke-width="1"/>
</svg>
